<mxfile host="drawio-plugin" modified="2023-05-18T01:18:20.139Z" agent="5.0 (Windows NT 6.2; Win64; x64) AppleWebKit/537.36 (KHTML, like Gecko) Chrome/97.0.4692.45 Safari/537.36" etag="7xk8xDcSSIRjls0WpPEo" version="20.5.3" type="embed"><diagram id="C5RBs43oDa-KdzZeNtuy" name="Page-1"><mxGraphModel dx="598" dy="431" grid="1" gridSize="10" guides="1" tooltips="1" connect="1" arrows="1" fold="1" page="1" pageScale="1" pageWidth="827" pageHeight="1169" math="0" shadow="0"><root><mxCell id="WIyWlLk6GJQsqaUBKTNV-0"/><mxCell id="WIyWlLk6GJQsqaUBKTNV-1" parent="WIyWlLk6GJQsqaUBKTNV-0"/><mxCell id="WzGGmDEjCBN73cqRpPO3-32" style="edgeStyle=orthogonalEdgeStyle;rounded=0;orthogonalLoop=1;jettySize=auto;html=1;" parent="WIyWlLk6GJQsqaUBKTNV-1" source="WzGGmDEjCBN73cqRpPO3-11" target="WzGGmDEjCBN73cqRpPO3-15" edge="1"><mxGeometry relative="1" as="geometry"/></mxCell><mxCell id="WzGGmDEjCBN73cqRpPO3-11" value="Productos" style="swimlane;fontStyle=0;childLayout=stackLayout;horizontal=1;startSize=26;fillColor=none;horizontalStack=0;resizeParent=1;resizeParentMax=0;resizeLast=0;collapsible=1;marginBottom=0;whiteSpace=wrap;html=1;" parent="WIyWlLk6GJQsqaUBKTNV-1" vertex="1"><mxGeometry x="780" y="363" width="140" height="260" as="geometry"/></mxCell><mxCell id="WzGGmDEjCBN73cqRpPO3-27" value="- categoria_id" style="text;strokeColor=none;fillColor=none;align=left;verticalAlign=top;spacingLeft=4;spacingRight=4;overflow=hidden;rotatable=0;points=[[0,0.5],[1,0.5]];portConstraint=eastwest;whiteSpace=wrap;html=1;" parent="WzGGmDEjCBN73cqRpPO3-11" vertex="1"><mxGeometry y="26" width="140" height="26" as="geometry"/></mxCell><mxCell id="WzGGmDEjCBN73cqRpPO3-12" value="- id" style="text;strokeColor=none;fillColor=none;align=left;verticalAlign=top;spacingLeft=4;spacingRight=4;overflow=hidden;rotatable=0;points=[[0,0.5],[1,0.5]];portConstraint=eastwest;whiteSpace=wrap;html=1;" parent="WzGGmDEjCBN73cqRpPO3-11" vertex="1"><mxGeometry y="52" width="140" height="26" as="geometry"/></mxCell><mxCell id="WzGGmDEjCBN73cqRpPO3-29" value="- descripcion" style="text;strokeColor=none;fillColor=none;align=left;verticalAlign=top;spacingLeft=4;spacingRight=4;overflow=hidden;rotatable=0;points=[[0,0.5],[1,0.5]];portConstraint=eastwest;whiteSpace=wrap;html=1;" parent="WzGGmDEjCBN73cqRpPO3-11" vertex="1"><mxGeometry y="78" width="140" height="26" as="geometry"/></mxCell><mxCell id="WzGGmDEjCBN73cqRpPO3-30" value="- precio" style="text;strokeColor=none;fillColor=none;align=left;verticalAlign=top;spacingLeft=4;spacingRight=4;overflow=hidden;rotatable=0;points=[[0,0.5],[1,0.5]];portConstraint=eastwest;whiteSpace=wrap;html=1;" parent="WzGGmDEjCBN73cqRpPO3-11" vertex="1"><mxGeometry y="104" width="140" height="26" as="geometry"/></mxCell><mxCell id="WzGGmDEjCBN73cqRpPO3-31" value="- imagen" style="text;strokeColor=none;fillColor=none;align=left;verticalAlign=top;spacingLeft=4;spacingRight=4;overflow=hidden;rotatable=0;points=[[0,0.5],[1,0.5]];portConstraint=eastwest;whiteSpace=wrap;html=1;" parent="WzGGmDEjCBN73cqRpPO3-11" vertex="1"><mxGeometry y="130" width="140" height="26" as="geometry"/></mxCell><mxCell id="WzGGmDEjCBN73cqRpPO3-28" value="- stock" style="text;strokeColor=none;fillColor=none;align=left;verticalAlign=top;spacingLeft=4;spacingRight=4;overflow=hidden;rotatable=0;points=[[0,0.5],[1,0.5]];portConstraint=eastwest;whiteSpace=wrap;html=1;" parent="WzGGmDEjCBN73cqRpPO3-11" vertex="1"><mxGeometry y="156" width="140" height="26" as="geometry"/></mxCell><mxCell id="WzGGmDEjCBN73cqRpPO3-13" value="- oferta" style="text;strokeColor=none;fillColor=none;align=left;verticalAlign=top;spacingLeft=4;spacingRight=4;overflow=hidden;rotatable=0;points=[[0,0.5],[1,0.5]];portConstraint=eastwest;whiteSpace=wrap;html=1;" parent="WzGGmDEjCBN73cqRpPO3-11" vertex="1"><mxGeometry y="182" width="140" height="26" as="geometry"/></mxCell><mxCell id="WzGGmDEjCBN73cqRpPO3-14" value="- fecha" style="text;strokeColor=none;fillColor=none;align=left;verticalAlign=top;spacingLeft=4;spacingRight=4;overflow=hidden;rotatable=0;points=[[0,0.5],[1,0.5]];portConstraint=eastwest;whiteSpace=wrap;html=1;" parent="WzGGmDEjCBN73cqRpPO3-11" vertex="1"><mxGeometry y="208" width="140" height="26" as="geometry"/></mxCell><mxCell id="0" value="- nombre" style="text;strokeColor=none;fillColor=none;align=left;verticalAlign=top;spacingLeft=4;spacingRight=4;overflow=hidden;rotatable=0;points=[[0,0.5],[1,0.5]];portConstraint=eastwest;whiteSpace=wrap;html=1;" vertex="1" parent="WzGGmDEjCBN73cqRpPO3-11"><mxGeometry y="234" width="140" height="26" as="geometry"/></mxCell><mxCell id="WzGGmDEjCBN73cqRpPO3-15" value="Categorias" style="swimlane;fontStyle=0;childLayout=stackLayout;horizontal=1;startSize=26;fillColor=none;horizontalStack=0;resizeParent=1;resizeParentMax=0;resizeLast=0;collapsible=1;marginBottom=0;whiteSpace=wrap;html=1;" parent="WIyWlLk6GJQsqaUBKTNV-1" vertex="1"><mxGeometry x="990" y="441" width="140" height="78" as="geometry"/></mxCell><mxCell id="WzGGmDEjCBN73cqRpPO3-17" value="- id" style="text;strokeColor=none;fillColor=none;align=left;verticalAlign=top;spacingLeft=4;spacingRight=4;overflow=hidden;rotatable=0;points=[[0,0.5],[1,0.5]];portConstraint=eastwest;whiteSpace=wrap;html=1;" parent="WzGGmDEjCBN73cqRpPO3-15" vertex="1"><mxGeometry y="26" width="140" height="26" as="geometry"/></mxCell><mxCell id="WzGGmDEjCBN73cqRpPO3-18" value="- nombre" style="text;strokeColor=none;fillColor=none;align=left;verticalAlign=top;spacingLeft=4;spacingRight=4;overflow=hidden;rotatable=0;points=[[0,0.5],[1,0.5]];portConstraint=eastwest;whiteSpace=wrap;html=1;" parent="WzGGmDEjCBN73cqRpPO3-15" vertex="1"><mxGeometry y="52" width="140" height="26" as="geometry"/></mxCell><mxCell id="WzGGmDEjCBN73cqRpPO3-19" value="Usuarios" style="swimlane;fontStyle=0;childLayout=stackLayout;horizontal=1;startSize=26;fillColor=none;horizontalStack=0;resizeParent=1;resizeParentMax=0;resizeLast=0;collapsible=1;marginBottom=0;whiteSpace=wrap;html=1;" parent="WIyWlLk6GJQsqaUBKTNV-1" vertex="1"><mxGeometry x="90" y="376" width="140" height="208" as="geometry"/></mxCell><mxCell id="WzGGmDEjCBN73cqRpPO3-20" value="- id" style="text;strokeColor=none;fillColor=none;align=left;verticalAlign=top;spacingLeft=4;spacingRight=4;overflow=hidden;rotatable=0;points=[[0,0.5],[1,0.5]];portConstraint=eastwest;whiteSpace=wrap;html=1;" parent="WzGGmDEjCBN73cqRpPO3-19" vertex="1"><mxGeometry y="26" width="140" height="26" as="geometry"/></mxCell><mxCell id="WzGGmDEjCBN73cqRpPO3-26" value="- nombre" style="text;strokeColor=none;fillColor=none;align=left;verticalAlign=top;spacingLeft=4;spacingRight=4;overflow=hidden;rotatable=0;points=[[0,0.5],[1,0.5]];portConstraint=eastwest;whiteSpace=wrap;html=1;" parent="WzGGmDEjCBN73cqRpPO3-19" vertex="1"><mxGeometry y="52" width="140" height="26" as="geometry"/></mxCell><mxCell id="WzGGmDEjCBN73cqRpPO3-23" value="- apellido" style="text;strokeColor=none;fillColor=none;align=left;verticalAlign=top;spacingLeft=4;spacingRight=4;overflow=hidden;rotatable=0;points=[[0,0.5],[1,0.5]];portConstraint=eastwest;whiteSpace=wrap;html=1;" parent="WzGGmDEjCBN73cqRpPO3-19" vertex="1"><mxGeometry y="78" width="140" height="26" as="geometry"/></mxCell><mxCell id="WzGGmDEjCBN73cqRpPO3-24" value="- email" style="text;strokeColor=none;fillColor=none;align=left;verticalAlign=top;spacingLeft=4;spacingRight=4;overflow=hidden;rotatable=0;points=[[0,0.5],[1,0.5]];portConstraint=eastwest;whiteSpace=wrap;html=1;" parent="WzGGmDEjCBN73cqRpPO3-19" vertex="1"><mxGeometry y="104" width="140" height="26" as="geometry"/></mxCell><mxCell id="WzGGmDEjCBN73cqRpPO3-25" value="- password" style="text;strokeColor=none;fillColor=none;align=left;verticalAlign=top;spacingLeft=4;spacingRight=4;overflow=hidden;rotatable=0;points=[[0,0.5],[1,0.5]];portConstraint=eastwest;whiteSpace=wrap;html=1;" parent="WzGGmDEjCBN73cqRpPO3-19" vertex="1"><mxGeometry y="130" width="140" height="26" as="geometry"/></mxCell><mxCell id="WzGGmDEjCBN73cqRpPO3-21" value="- rol" style="text;strokeColor=none;fillColor=none;align=left;verticalAlign=top;spacingLeft=4;spacingRight=4;overflow=hidden;rotatable=0;points=[[0,0.5],[1,0.5]];portConstraint=eastwest;whiteSpace=wrap;html=1;" parent="WzGGmDEjCBN73cqRpPO3-19" vertex="1"><mxGeometry y="156" width="140" height="26" as="geometry"/></mxCell><mxCell id="WzGGmDEjCBN73cqRpPO3-22" value="- imagen" style="text;strokeColor=none;fillColor=none;align=left;verticalAlign=top;spacingLeft=4;spacingRight=4;overflow=hidden;rotatable=0;points=[[0,0.5],[1,0.5]];portConstraint=eastwest;whiteSpace=wrap;html=1;" parent="WzGGmDEjCBN73cqRpPO3-19" vertex="1"><mxGeometry y="182" width="140" height="26" as="geometry"/></mxCell><mxCell id="WzGGmDEjCBN73cqRpPO3-43" style="edgeStyle=orthogonalEdgeStyle;rounded=0;orthogonalLoop=1;jettySize=auto;html=1;" parent="WIyWlLk6GJQsqaUBKTNV-1" source="WzGGmDEjCBN73cqRpPO3-33" target="WzGGmDEjCBN73cqRpPO3-19" edge="1"><mxGeometry relative="1" as="geometry"><Array as="points"><mxPoint x="260" y="480"/><mxPoint x="260" y="480"/></Array></mxGeometry></mxCell><mxCell id="WzGGmDEjCBN73cqRpPO3-33" value="Pedidos" style="swimlane;fontStyle=0;childLayout=stackLayout;horizontal=1;startSize=26;fillColor=none;horizontalStack=0;resizeParent=1;resizeParentMax=0;resizeLast=0;collapsible=1;marginBottom=0;whiteSpace=wrap;html=1;" parent="WIyWlLk6GJQsqaUBKTNV-1" vertex="1"><mxGeometry x="300" y="350" width="140" height="260" as="geometry"/></mxCell><mxCell id="WzGGmDEjCBN73cqRpPO3-34" value="- id" style="text;strokeColor=none;fillColor=none;align=left;verticalAlign=top;spacingLeft=4;spacingRight=4;overflow=hidden;rotatable=0;points=[[0,0.5],[1,0.5]];portConstraint=eastwest;whiteSpace=wrap;html=1;" parent="WzGGmDEjCBN73cqRpPO3-33" vertex="1"><mxGeometry y="26" width="140" height="26" as="geometry"/></mxCell><mxCell id="WzGGmDEjCBN73cqRpPO3-35" value="- usuario_id" style="text;strokeColor=none;fillColor=none;align=left;verticalAlign=top;spacingLeft=4;spacingRight=4;overflow=hidden;rotatable=0;points=[[0,0.5],[1,0.5]];portConstraint=eastwest;whiteSpace=wrap;html=1;" parent="WzGGmDEjCBN73cqRpPO3-33" vertex="1"><mxGeometry y="52" width="140" height="26" as="geometry"/></mxCell><mxCell id="WzGGmDEjCBN73cqRpPO3-36" value="- direccion" style="text;strokeColor=none;fillColor=none;align=left;verticalAlign=top;spacingLeft=4;spacingRight=4;overflow=hidden;rotatable=0;points=[[0,0.5],[1,0.5]];portConstraint=eastwest;whiteSpace=wrap;html=1;" parent="WzGGmDEjCBN73cqRpPO3-33" vertex="1"><mxGeometry y="78" width="140" height="26" as="geometry"/></mxCell><mxCell id="WzGGmDEjCBN73cqRpPO3-38" value="- localidad" style="text;strokeColor=none;fillColor=none;align=left;verticalAlign=top;spacingLeft=4;spacingRight=4;overflow=hidden;rotatable=0;points=[[0,0.5],[1,0.5]];portConstraint=eastwest;whiteSpace=wrap;html=1;" parent="WzGGmDEjCBN73cqRpPO3-33" vertex="1"><mxGeometry y="104" width="140" height="26" as="geometry"/></mxCell><mxCell id="WzGGmDEjCBN73cqRpPO3-39" value="- coste" style="text;strokeColor=none;fillColor=none;align=left;verticalAlign=top;spacingLeft=4;spacingRight=4;overflow=hidden;rotatable=0;points=[[0,0.5],[1,0.5]];portConstraint=eastwest;whiteSpace=wrap;html=1;" parent="WzGGmDEjCBN73cqRpPO3-33" vertex="1"><mxGeometry y="130" width="140" height="26" as="geometry"/></mxCell><mxCell id="WzGGmDEjCBN73cqRpPO3-41" value="- fecha" style="text;strokeColor=none;fillColor=none;align=left;verticalAlign=top;spacingLeft=4;spacingRight=4;overflow=hidden;rotatable=0;points=[[0,0.5],[1,0.5]];portConstraint=eastwest;whiteSpace=wrap;html=1;" parent="WzGGmDEjCBN73cqRpPO3-33" vertex="1"><mxGeometry y="156" width="140" height="26" as="geometry"/></mxCell><mxCell id="WzGGmDEjCBN73cqRpPO3-42" value="- hora" style="text;strokeColor=none;fillColor=none;align=left;verticalAlign=top;spacingLeft=4;spacingRight=4;overflow=hidden;rotatable=0;points=[[0,0.5],[1,0.5]];portConstraint=eastwest;whiteSpace=wrap;html=1;" parent="WzGGmDEjCBN73cqRpPO3-33" vertex="1"><mxGeometry y="182" width="140" height="26" as="geometry"/></mxCell><mxCell id="WzGGmDEjCBN73cqRpPO3-40" value="- estado" style="text;strokeColor=none;fillColor=none;align=left;verticalAlign=top;spacingLeft=4;spacingRight=4;overflow=hidden;rotatable=0;points=[[0,0.5],[1,0.5]];portConstraint=eastwest;whiteSpace=wrap;html=1;" parent="WzGGmDEjCBN73cqRpPO3-33" vertex="1"><mxGeometry y="208" width="140" height="26" as="geometry"/></mxCell><mxCell id="WzGGmDEjCBN73cqRpPO3-37" value="- provincia" style="text;strokeColor=none;fillColor=none;align=left;verticalAlign=top;spacingLeft=4;spacingRight=4;overflow=hidden;rotatable=0;points=[[0,0.5],[1,0.5]];portConstraint=eastwest;whiteSpace=wrap;html=1;" parent="WzGGmDEjCBN73cqRpPO3-33" vertex="1"><mxGeometry y="234" width="140" height="26" as="geometry"/></mxCell><mxCell id="WzGGmDEjCBN73cqRpPO3-49" style="edgeStyle=orthogonalEdgeStyle;rounded=0;orthogonalLoop=1;jettySize=auto;html=1;" parent="WIyWlLk6GJQsqaUBKTNV-1" source="WzGGmDEjCBN73cqRpPO3-44" target="WzGGmDEjCBN73cqRpPO3-33" edge="1"><mxGeometry relative="1" as="geometry"/></mxCell><mxCell id="WzGGmDEjCBN73cqRpPO3-50" style="edgeStyle=orthogonalEdgeStyle;rounded=0;orthogonalLoop=1;jettySize=auto;html=1;" parent="WIyWlLk6GJQsqaUBKTNV-1" source="WzGGmDEjCBN73cqRpPO3-44" target="WzGGmDEjCBN73cqRpPO3-11" edge="1"><mxGeometry relative="1" as="geometry"/></mxCell><mxCell id="WzGGmDEjCBN73cqRpPO3-44" value="LineasPedido" style="swimlane;fontStyle=0;childLayout=stackLayout;horizontal=1;startSize=26;fillColor=none;horizontalStack=0;resizeParent=1;resizeParentMax=0;resizeLast=0;collapsible=1;marginBottom=0;whiteSpace=wrap;html=1;" parent="WIyWlLk6GJQsqaUBKTNV-1" vertex="1"><mxGeometry x="530" y="415" width="140" height="130" as="geometry"/></mxCell><mxCell id="WzGGmDEjCBN73cqRpPO3-45" value="- id" style="text;strokeColor=none;fillColor=none;align=left;verticalAlign=top;spacingLeft=4;spacingRight=4;overflow=hidden;rotatable=0;points=[[0,0.5],[1,0.5]];portConstraint=eastwest;whiteSpace=wrap;html=1;" parent="WzGGmDEjCBN73cqRpPO3-44" vertex="1"><mxGeometry y="26" width="140" height="26" as="geometry"/></mxCell><mxCell id="WzGGmDEjCBN73cqRpPO3-46" value="- pedido_id" style="text;strokeColor=none;fillColor=none;align=left;verticalAlign=top;spacingLeft=4;spacingRight=4;overflow=hidden;rotatable=0;points=[[0,0.5],[1,0.5]];portConstraint=eastwest;whiteSpace=wrap;html=1;" parent="WzGGmDEjCBN73cqRpPO3-44" vertex="1"><mxGeometry y="52" width="140" height="26" as="geometry"/></mxCell><mxCell id="WzGGmDEjCBN73cqRpPO3-47" value="- producto_id" style="text;strokeColor=none;fillColor=none;align=left;verticalAlign=top;spacingLeft=4;spacingRight=4;overflow=hidden;rotatable=0;points=[[0,0.5],[1,0.5]];portConstraint=eastwest;whiteSpace=wrap;html=1;" parent="WzGGmDEjCBN73cqRpPO3-44" vertex="1"><mxGeometry y="78" width="140" height="26" as="geometry"/></mxCell><mxCell id="WzGGmDEjCBN73cqRpPO3-48" value="- unidades" style="text;strokeColor=none;fillColor=none;align=left;verticalAlign=top;spacingLeft=4;spacingRight=4;overflow=hidden;rotatable=0;points=[[0,0.5],[1,0.5]];portConstraint=eastwest;whiteSpace=wrap;html=1;" parent="WzGGmDEjCBN73cqRpPO3-44" vertex="1"><mxGeometry y="104" width="140" height="26" as="geometry"/></mxCell><mxCell id="WzGGmDEjCBN73cqRpPO3-51" value="1" style="text;html=1;align=center;verticalAlign=middle;resizable=0;points=[];autosize=1;strokeColor=none;fillColor=none;" parent="WIyWlLk6GJQsqaUBKTNV-1" vertex="1"><mxGeometry x="230" y="460" width="30" height="30" as="geometry"/></mxCell><mxCell id="WzGGmDEjCBN73cqRpPO3-52" value="1" style="text;html=1;align=center;verticalAlign=middle;resizable=0;points=[];autosize=1;strokeColor=none;fillColor=none;" parent="WIyWlLk6GJQsqaUBKTNV-1" vertex="1"><mxGeometry x="440" y="460" width="30" height="30" as="geometry"/></mxCell><mxCell id="WzGGmDEjCBN73cqRpPO3-53" value="1...*" style="text;html=1;align=center;verticalAlign=middle;resizable=0;points=[];autosize=1;strokeColor=none;fillColor=none;" parent="WIyWlLk6GJQsqaUBKTNV-1" vertex="1"><mxGeometry x="740" y="460" width="40" height="30" as="geometry"/></mxCell><mxCell id="WzGGmDEjCBN73cqRpPO3-54" value="1" style="text;html=1;align=center;verticalAlign=middle;resizable=0;points=[];autosize=1;strokeColor=none;fillColor=none;" parent="WIyWlLk6GJQsqaUBKTNV-1" vertex="1"><mxGeometry x="960" y="460" width="30" height="30" as="geometry"/></mxCell></root></mxGraphModel></diagram></mxfile>